<?xml version="1.0" encoding="utf-8"?>
<!-- Generator: Adobe Illustrator 19.0.0, SVG Export Plug-In . SVG Version: 6.00 Build 0)  -->
<svg version="1.1" id="Layer_1" xmlns="http://www.w3.org/2000/svg" xmlns:xlink="http://www.w3.org/1999/xlink" x="0px" y="0px"
	 viewBox="0 0 512 512" style="enable-background:new 0 0 512 512;" xml:space="preserve">
<g id="XMLID_2_">
	<path id="XMLID_9_" d="M0,0v512h512V0H0z M121.3,84.3c27.6,0,44.1,17.3,44.9,40.2c0,22.8-17.3,40.2-44.9,40.2h-0.8
		c-26.8,0-44.1-18.1-44.1-40.2C76.4,101.6,94.5,84.3,121.3,84.3L121.3,84.3z M352.9,191.4c52,0,91.4,33.1,91.4,105.6v135.5h-79.6
		v-126c0-31.5-11-52.8-40.2-52.8c-22.1,0-35.4,14.2-41,28.4c-2.4,4.7-2.4,11.8-2.4,18.9v132.3h-78.8c0,0,0.8-213.5,0-235.5H282v33.1
		C292.2,214.3,311.1,191.4,352.9,191.4z M282,230l-0.8,1.6h0.8V230z M81.1,196.9h79.6v235.5H81.1V196.9z"/>
</g>
</svg>
